<?xml version="1.0" encoding="UTF-8"?><svg id="Layer_1" xmlns="http://www.w3.org/2000/svg" xmlns:xlink="http://www.w3.org/1999/xlink" viewBox="0 0 474 165"><defs><style>.cls-1{fill:#06242d;}.cls-2{fill:url(#MHFD_Gradient);}</style><linearGradient id="MHFD_Gradient" x1=".08" y1="109.93" x2="473.84" y2="109.93" gradientTransform="translate(0 166) scale(1 -1)" gradientUnits="userSpaceOnUse"><stop offset="0" stop-color="#80a7f7"/><stop offset="1" stop-color="#62b4cc"/></linearGradient></defs><path class="cls-2" d="M106.6,0h13.21v112.13h-13.54V21.22l-44.42,52.35h-3.31L13.62,21.39v90.74H.08V0h13.38l46.65,55.9L106.6,0ZM279.84,56.87c-11.11-.39-24-3.68-32.7-6.34V0h-13.63v45.92c-12.3-4.32-25.26-6.45-38.3-6.29-9.83.17-19.61,1.6-29.08,4.25V0h-13.62v48.09c-6.06,2.12-11.37,4.3-15.41,6.08l-3.43,1.52,6.07,11.81,3-1.33c2.7-1.18,5.48-2.32,8.25-3.39l1.48-.56v49.91h13.62v-54.48c9.22-2.68,19.5-4.77,29.08-4.77,17.45,0,28.31,3.45,38.3,7.1v52.15h13.63v-47.13c10.58,3.35,21.6,5.08,32.7,5.13v42h13.62v-42.75c18.18-2.32,36.33-9.3,46.58-13.78l3.44-1.52-6.05-11.8-3.05,1.33c-2.7,1.18-5.48,2.33-8.25,3.4-8.82,3.41-20.75,7.31-32.67,9V12.39h63.66V0h-77.24v56.87ZM473.84,56.15c0,34.35-19.24,56-56.73,56h-45.78V0h45.91c37.41,0,56.57,23,56.57,56.15h.03ZM459.96,56.15c0-27-14.53-43.68-43.51-43.68h-31.45v87.2h31.46c28.94,0,43.47-15.67,43.47-43.52h.03Z"/><path class="cls-1" d="M11.34,152.85l-7.18-8.51H0v20.33h4.92v-12.67l6.14,7h.59l6.08-7v12.65h4.92v-20.31h-4.16l-7.15,8.51ZM29.34,164.65h4.92v-20.31h-4.92v20.31ZM45.92,144.34h-4.92v20.31h15.18v-4.13h-10.26v-16.18ZM66.43,156.38h9.22v-4.13h-9.22v-3.77h10.41v-4.14h-15.34v20.31h15.5v-4.13h-10.57v-4.14ZM107.31,152.22h-8.79v-7.88h-4.92v20.31h4.92v-8.3h8.79v8.3h4.93v-20.31h-4.93v7.88ZM118.92,164.65h4.93v-20.31h-4.93v20.31ZM140,157h4.67l.05,3.09c-1.1.34-2.24.51-3.39.5-3.73,0-6.51-2.3-6.51-6.11,0-4.38,3.54-6.05,7.45-6.05,2.08.01,4.15.44,6.06,1.27l.33-4.25c-2.16-.92-4.48-1.39-6.83-1.39-6.23,0-12.05,3.42-12.05,10.42-.12,3.88,2.05,7.46,5.55,9.14,1.95.93,4.08,1.39,6.24,1.34,2.81-.06,5.57-.76,8.07-2.05v-9.91h-9.64v4ZM169.43,152.22h-8.8v-7.88h-4.92v20.31h4.92v-8.3h8.8v8.3h4.92v-20.31h-4.92v7.88ZM191.78,164.65h4.93v-8.15h7.73v-4.14h-7.73v-3.88h9.85v-4.14h-14.78v20.31ZM217,144.34h-4.93v20.31h15.23v-4.13h-10.3v-16.18ZM241.36,144c-6.36,0-10.83,4.33-10.83,10.51s4.44,10.49,10.83,10.49,10.77-4.41,10.77-10.56-4.38-10.44-10.77-10.44ZM247.07,154.44c0,3.51-2.29,5.94-5.71,5.94s-5.91-2.65-5.91-5.91,2.65-5.91,5.91-5.91c.2,0,.41,0,.61,0,3.03.21,5.31,2.84,5.1,5.87ZM268,144c-6.38,0-10.83,4.33-10.83,10.51s4.4,10.49,10.83,10.49,10.77-4.41,10.77-10.56-4.38-10.44-10.77-10.44ZM273.72,154.44c0,3.51-2.29,5.94-5.72,5.94s-5.91-2.65-5.91-5.91,2.65-5.91,5.91-5.91c.21,0,.41,0,.62,0,3.03.21,5.31,2.84,5.1,5.87ZM293.59,144.34h-8.9v20.31h8.9c6.34,0,10.41-3.74,10.41-10.2s-3.9-10.11-10.41-10.11ZM293.17,160.48h-3.56v-12l3.56-.07c3.86,0,5.79,2.16,5.79,6s-1.84,6.07-5.79,6.07ZM329.57,144.34h-8.9v20.31h8.9c6.34,0,10.41-3.74,10.41-10.2s-3.9-10.11-10.41-10.11ZM329.15,160.48h-3.56v-12l3.56-.07c3.86,0,5.79,2.16,5.79,6s-1.79,6.07-5.79,6.07ZM345.91,164.65h4.92v-20.31h-4.92v20.31ZM367.08,152.85l-2.91-.84c-1.16-.33-2.36-.53-2.36-1.9s1.41-1.82,3.14-1.82c2.15.03,4.27.5,6.23,1.37l.4-4.2c-2.13-.99-4.46-1.48-6.81-1.42-4.83,0-8,2.66-8,6.31s2.84,4.98,5.55,5.87l3.17.8c1.48.39,2.13.87,2.13,1.81,0,1.36-1.54,1.81-3.39,1.81-2.79,0-6.43-1.04-6.94-1.6l-.38,4.33c2.42,1.05,5.03,1.59,7.67,1.58,4.95,0,8.09-2.56,8.09-6.28,0-3.2-1.85-4.74-5.59-5.82ZM376.86,148.57h6v16.08h4.92v-16.08h6v-4.23h-16.92v4.23ZM416.46,151.61c0-4.27-3.35-7.27-7.74-7.27h-9.64v20.31h4.92v-5.76h3.8l4.32,5.75h5.91l-5.21-6.76c2.23-1.31,3.61-3.69,3.64-6.27ZM408.38,154.75h-4.38v-6.27h4.38c.1,0,.2,0,.3,0,1.61.12,2.82,1.52,2.7,3.12,0,.05,0,.1,0,.14,0,1.66-1.35,3-3,3ZM423.49,164.65h4.93v-20.31h-4.93v20.31ZM446.27,160.59c-3.93,0-6.93-2.38-6.93-6.18,0-4.28,3.67-5.94,7.46-5.94,1.86,0,3.69.4,5.37,1.18l.32-4.27c-2.01-.91-4.19-1.38-6.4-1.38-6.09,0-11.79,3.55-11.79,10.56,0,6.37,5.1,10.44,11.2,10.44,2.56-.01,5.08-.63,7.36-1.81l-.67-4.17c-1.78,1.07-3.84,1.62-5.92,1.57ZM457.1,144.34v4.23h6v16.08h4.9v-16.08h6v-4.23h-16.9Z"/></svg>